<svg viewBox="0 0 200 200" xmlns="http://www.w3.org/2000/svg">
    <path fill="#02838C"
        d="M44.9,-71.4C57.3,-61.9,65.9,-47.9,72.9,-33.1C79.9,-18.3,85.3,-2.6,83.3,12.1C81.3,26.7,71.9,40.5,60.9,52.2C49.9,64,37.2,73.9,23.3,76.9C9.3,79.9,-5.9,76,-21.5,72C-37.1,67.9,-52.9,63.8,-64.9,54C-76.8,44.2,-84.8,28.8,-87.9,12.2C-91,-4.4,-89.3,-22.2,-79.9,-33.9C-70.5,-45.6,-53.5,-51.2,-38.9,-59.7C-24.3,-68.2,-12.2,-79.6,2,-82.8C16.2,-85.9,32.5,-80.9,44.9,-71.4Z"
        transform="translate(100 100)" />
</svg>